<svg width="170" height="51" viewBox="0 0 170 51" fill="none" xmlns="http://www.w3.org/2000/svg">
<path d="M10.4766 18.0558C10.4766 16.5484 10.1306 15.4287 9.43865 14.6965C8.76832 13.9429 7.78445 13.566 6.48704 13.566C6.18431 13.566 5.92483 13.5768 5.7086 13.5983C5.49236 13.5983 5.28694 13.5983 5.09233 13.5983C5.09233 14.0505 5.08152 14.5243 5.05989 15.0195C5.05989 15.4933 5.05989 16.0639 5.05989 16.7315C5.05989 17.2483 5.05989 17.7758 5.05989 18.3142C5.08152 18.8525 5.09233 19.3801 5.09233 19.8969C5.09233 20.4137 5.09233 20.8874 5.09233 21.3181C5.11395 21.7487 5.12476 22.104 5.12476 22.384C5.42749 22.4055 5.7086 22.427 5.96808 22.4486C6.22756 22.4486 6.5411 22.4486 6.9087 22.4486C7.38442 22.4486 7.83851 22.3517 8.27098 22.1579C8.70345 21.9641 9.08186 21.6841 9.40621 21.3181C9.73056 20.9305 9.99005 20.4675 10.1847 19.9292C10.3793 19.3908 10.4766 18.7664 10.4766 18.0558ZM10.2495 7.62282C10.2495 7.10602 10.1847 6.62152 10.0549 6.16932C9.9468 5.69559 9.75219 5.29722 9.47108 4.97422C9.18998 4.62968 8.83319 4.36051 8.40072 4.16671C7.96825 3.95138 7.42766 3.84371 6.77896 3.84371C6.30324 3.84371 5.96808 3.85448 5.77347 3.87601C5.60048 3.87601 5.40587 3.89755 5.18963 3.94061C5.14639 4.73735 5.11395 5.54485 5.09233 6.36312C5.07071 7.18139 5.05989 7.87046 5.05989 8.43033C5.05989 9.01173 5.05989 9.5716 5.05989 10.1099C5.08152 10.6267 5.09233 11.1651 5.09233 11.7249H6.55191C7.00601 11.7249 7.44929 11.6388 7.88176 11.4665C8.33585 11.2943 8.73588 11.0466 9.08186 10.7236C9.42784 10.3791 9.70894 9.94843 9.92518 9.43163C10.1414 8.91483 10.2495 8.31189 10.2495 7.62282ZM0.259482 10.9497C0.259482 9.16246 0.237858 7.57976 0.194611 6.20162C0.151364 4.80195 0.0864939 3.40228 0 2.00261C0.367599 2.04567 0.767634 2.08874 1.2001 2.13181C1.63257 2.15334 2.1191 2.16411 2.65969 2.16411C3.5895 2.16411 4.56255 2.14257 5.57886 2.09951C6.59516 2.03491 7.56822 2.00261 8.49803 2.00261C9.47108 2.00261 10.3576 2.09951 11.1577 2.29331C11.9578 2.48711 12.6497 2.78858 13.2336 3.19771C13.8174 3.58531 14.2607 4.10211 14.5634 4.74812C14.8878 5.37258 15.0499 6.12625 15.0499 7.00912C15.0499 7.89199 14.8661 8.65643 14.4985 9.30243C14.1309 9.9269 13.6768 10.4545 13.1363 10.8851C12.6173 11.2943 12.0443 11.6173 11.4172 11.8541C10.8117 12.091 10.2603 12.2525 9.763 12.3386V12.4032C10.2603 12.4248 10.8442 12.5432 11.5145 12.7585C12.1848 12.9523 12.8227 13.2646 13.4282 13.6952C14.0336 14.1259 14.5418 14.6858 14.9526 15.3749C15.3851 16.0424 15.6013 16.8607 15.6013 17.8297C15.6013 18.9925 15.3851 19.983 14.9526 20.8013C14.5418 21.6195 13.9796 22.2871 13.266 22.8039C12.5741 23.3207 11.774 23.6867 10.8658 23.9021C9.95761 24.0959 9.01699 24.1928 8.04393 24.1928C7.17899 24.1928 6.36811 24.182 5.61129 24.1605C4.87609 24.1389 4.09765 24.1282 3.27596 24.1282C2.69212 24.1282 2.08667 24.1282 1.45958 24.1282C0.854127 24.1282 0.367599 24.1497 0 24.1928C0.0864939 22.8577 0.151364 21.5011 0.194611 20.123C0.237858 18.7233 0.259482 17.1298 0.259482 15.3426V10.9497Z" fill="#343434"/>
<path d="M23.0721 16.4731C23.0721 17.3344 23.1586 18.1419 23.3316 18.8956C23.5045 19.6492 23.764 20.306 24.11 20.8659C24.4776 21.4042 24.9317 21.8349 25.4723 22.1579C26.0345 22.4593 26.6832 22.6101 27.4184 22.6101C28.9104 22.6101 30.2403 22.1256 31.4079 21.1566L31.7972 21.4473L31.0836 23.2561C30.543 23.6652 29.8943 23.9882 29.1375 24.2251C28.3806 24.4835 27.386 24.6127 26.1534 24.6127C25.0939 24.6127 24.0884 24.4619 23.137 24.1605C22.1855 23.8805 21.3422 23.4068 20.607 22.7393C19.8934 22.0717 19.3204 21.2319 18.8879 20.2199C18.4771 19.1863 18.2717 17.9589 18.2717 16.5377C18.2717 15.138 18.4555 13.9213 18.8231 12.8877C19.2123 11.8541 19.7421 10.9928 20.4124 10.3037C21.0827 9.61467 21.872 9.09786 22.7802 8.75333C23.71 8.40879 24.7155 8.23653 25.7966 8.23653C27.9374 8.23653 29.5699 8.861 30.6944 10.1099C31.8404 11.3589 32.4134 13.1246 32.4134 15.4072V16.0855C32.4134 16.2793 32.4026 16.4085 32.381 16.4731H23.0721ZM28.0671 15.0195C28.0239 13.4045 27.8184 12.1125 27.4508 11.1435C27.1049 10.1745 26.5102 9.69003 25.6669 9.69003C25.1912 9.69003 24.7911 9.85153 24.4668 10.1745C24.1424 10.4975 23.883 10.9174 23.6883 11.4342C23.4937 11.9295 23.3424 12.5001 23.2343 13.1461C23.1478 13.7706 23.0937 14.3951 23.0721 15.0195H28.0671Z" fill="#343434"/>
<path d="M35.6569 20.2199C35.7867 20.5644 35.9489 20.8982 36.1435 21.2212C36.3597 21.5226 36.6192 21.8026 36.9219 22.061C37.2246 22.2978 37.5814 22.4916 37.9923 22.6424C38.4247 22.7931 38.9221 22.8685 39.4843 22.8685C40.2411 22.8685 40.825 22.6747 41.2358 22.2871C41.6466 21.8995 41.8521 21.4796 41.8521 21.0274C41.8521 20.5321 41.6683 20.1337 41.3007 19.8323C40.9331 19.5308 40.4682 19.2616 39.906 19.0248C39.3654 18.7664 38.7707 18.508 38.122 18.2496C37.4733 17.9912 36.8679 17.6682 36.3056 17.2806C35.7651 16.8714 35.311 16.3654 34.9434 15.7625C34.5758 15.1595 34.392 14.3843 34.392 13.4368C34.392 12.5324 34.5541 11.7572 34.8785 11.1112C35.2245 10.4437 35.6678 9.90537 36.2083 9.49623C36.7489 9.06556 37.3544 8.75333 38.0247 8.55953C38.7167 8.34419 39.3978 8.23653 40.0681 8.23653C40.9763 8.23653 41.7764 8.36573 42.4683 8.62413C43.1819 8.88253 43.9063 9.25936 44.6415 9.75463C44.4469 10.1853 44.2847 10.6483 44.155 11.1435C44.0252 11.6388 43.9279 12.1233 43.8631 12.597H42.9549C42.89 12.3386 42.7819 12.0587 42.6305 11.7572C42.4791 11.4342 42.2737 11.1328 42.0142 10.8528C41.7548 10.5729 41.4412 10.3468 41.0736 10.1745C40.706 9.98073 40.2627 9.88383 39.7438 9.88383C39.0951 9.88383 38.5437 10.0561 38.0896 10.4006C37.6571 10.7452 37.4409 11.1974 37.4409 11.7572C37.4409 12.274 37.6247 12.6939 37.9923 13.0169C38.3815 13.3184 38.8572 13.5876 39.4194 13.8244C39.9816 14.0613 40.5979 14.2982 41.2682 14.535C41.9386 14.7719 42.5548 15.0841 43.117 15.4718C43.6793 15.8378 44.1442 16.3223 44.5118 16.9253C44.901 17.5282 45.0956 18.3034 45.0956 19.2509C45.0956 20.1983 44.9226 21.0166 44.5766 21.7057C44.2306 22.3732 43.7657 22.9331 43.1819 23.3853C42.5981 23.8159 41.9277 24.1282 41.1709 24.322C40.4357 24.5158 39.6573 24.6127 38.8356 24.6127C37.8625 24.6127 36.9868 24.4727 36.2083 24.1928C35.4299 23.9128 34.8136 23.6221 34.3595 23.3207C34.619 22.2871 34.7812 21.2535 34.8461 20.2199H35.6569Z" fill="#343434"/>
<path d="M56.2751 8.81793C56.2102 9.14093 56.1778 9.43163 56.1778 9.69003C56.1778 9.96997 56.2102 10.2391 56.2751 10.4975L53.4208 10.4329C53.3776 10.9282 53.3343 11.4988 53.2911 12.1448C53.2694 12.7908 53.2478 13.4476 53.2262 14.1151C53.2262 14.7827 53.2154 15.4287 53.1938 16.0532C53.1938 16.6776 53.1938 17.2052 53.1938 17.6359C53.1938 18.7556 53.2154 19.66 53.2586 20.3491C53.3235 21.0381 53.4208 21.5657 53.5505 21.9318C53.6803 22.2978 53.8641 22.5455 54.1019 22.6747C54.3398 22.8039 54.6425 22.8685 55.0101 22.8685C55.421 22.8685 55.7237 22.8469 55.9183 22.8039C56.1129 22.7393 56.3075 22.6531 56.5021 22.5455V23.8698C56.0697 24.0636 55.5291 24.2358 54.8804 24.3866C54.2317 24.5373 53.5938 24.6127 52.9667 24.6127C50.2205 24.6127 48.8474 22.9761 48.8474 19.7031C48.8474 19.0786 48.8582 18.3788 48.8799 17.6036C48.9015 16.8068 48.9231 15.9993 48.9447 15.1811C48.988 14.3412 49.0204 13.523 49.042 12.7262C49.0637 11.908 49.0745 11.1543 49.0745 10.4652L46.804 10.4975C46.8689 10.2391 46.9013 9.96997 46.9013 9.69003C46.9013 9.43163 46.8689 9.14093 46.804 8.81793L49.0745 8.91483C49.0745 8.24729 49.0637 7.62282 49.042 7.04142C49.0204 6.46002 48.988 5.76018 48.9447 4.94192C49.7016 4.64045 50.4476 4.32821 51.1828 4.00521C51.918 3.66068 52.6532 3.30538 53.3884 2.93931L53.7127 3.16541C53.6695 3.50994 53.6262 3.91908 53.583 4.39282C53.5614 4.84502 53.5289 5.32952 53.4857 5.84632C53.464 6.34159 53.4424 6.85839 53.4208 7.39673C53.4208 7.91353 53.4208 8.40879 53.4208 8.88253L56.2751 8.81793Z" fill="#343434"/>
<path d="M78.666 8.07503C78.666 7.12756 78.5687 6.37389 78.3741 5.81402C78.1795 5.25415 77.8768 4.83425 77.4659 4.55432C77.0767 4.25285 76.5577 4.05905 75.909 3.97291C75.282 3.88678 74.5251 3.84371 73.6386 3.84371C73.5737 6.77226 73.5413 9.7008 73.5413 12.6293C73.671 12.6509 73.7899 12.6724 73.8981 12.6939C74.0278 12.6939 74.1467 12.6939 74.2548 12.6939C75.682 12.6939 76.774 12.3171 77.5308 11.5634C78.2876 10.7882 78.666 9.62543 78.666 8.07503ZM73.5413 14.0182V15.3426C73.5413 17.1298 73.5629 18.7233 73.6061 20.123C73.6494 21.5011 73.7143 22.8577 73.8008 24.1928C73.4332 24.1497 73.0331 24.1282 72.6007 24.1282C72.1682 24.1282 71.6817 24.1282 71.1411 24.1282C70.6005 24.1282 70.114 24.1282 69.6815 24.1282C69.249 24.1282 68.849 24.1497 68.4814 24.1928C68.5679 22.8577 68.6327 21.5011 68.676 20.123C68.7192 18.7233 68.7409 17.1298 68.7409 15.3426V10.9497C68.7409 9.16246 68.7192 7.57976 68.676 6.20162C68.6327 4.80195 68.5679 3.40228 68.4814 2.00261C68.849 2.04567 69.249 2.08874 69.6815 2.13181C70.114 2.15334 70.6005 2.16411 71.1411 2.16411C71.7249 2.16411 72.3844 2.14257 73.1196 2.09951C73.8764 2.03491 74.8062 2.00261 75.909 2.00261C76.7307 2.00261 77.4335 2.02414 78.0173 2.06721C78.6012 2.11027 79.0985 2.17487 79.5094 2.26101C79.9418 2.34714 80.3094 2.46557 80.6121 2.61631C80.9365 2.74551 81.2392 2.90701 81.5203 3.10081C82.169 3.57455 82.6772 4.16671 83.0448 4.87732C83.434 5.56639 83.6286 6.39542 83.6286 7.36442C83.6286 8.93636 83.1962 10.2176 82.3312 11.2081C81.4663 12.1987 80.2229 12.8985 78.6012 13.3076C79.6391 15.138 80.7527 16.9683 81.942 18.7987C83.1313 20.6075 84.3206 22.4055 85.5099 24.1928C85.0125 24.1497 84.526 24.1282 84.0503 24.1282C83.5746 24.1282 83.088 24.1282 82.5907 24.1282C82.0934 24.1282 81.596 24.1282 81.0987 24.1282C80.623 24.1282 80.1364 24.1497 79.6391 24.1928L73.8332 14.0182H73.5413Z" fill="#343434"/>
<path d="M91.5535 16.4731C91.5535 17.3344 91.64 18.1419 91.8129 18.8956C91.9859 19.6492 92.2454 20.306 92.5914 20.8659C92.959 21.4042 93.4131 21.8349 93.9537 22.1579C94.5159 22.4593 95.1646 22.6101 95.8998 22.6101C97.3918 22.6101 98.7216 22.1256 99.8893 21.1566L100.279 21.4473L99.5649 23.2561C99.0244 23.6652 98.3757 23.9882 97.6188 24.2251C96.862 24.4835 95.8673 24.6127 94.6348 24.6127C93.5752 24.6127 92.5698 24.4619 91.6183 24.1605C90.6669 23.8805 89.8236 23.4068 89.0884 22.7393C88.3748 22.0717 87.8018 21.2319 87.3693 20.2199C86.9585 19.1863 86.753 17.9589 86.753 16.5377C86.753 15.138 86.9368 13.9213 87.3044 12.8877C87.6937 11.8541 88.2234 10.9928 88.8938 10.3037C89.5641 9.61467 90.3534 9.09786 91.2615 8.75333C92.1914 8.40879 93.1968 8.23653 94.278 8.23653C96.4187 8.23653 98.0513 8.861 99.1757 10.1099C100.322 11.3589 100.895 13.1246 100.895 15.4072V16.0855C100.895 16.2793 100.884 16.4085 100.862 16.4731H91.5535ZM96.5485 15.0195C96.5052 13.4045 96.2998 12.1125 95.9322 11.1435C95.5862 10.1745 94.9916 9.69003 94.1483 9.69003C93.6726 9.69003 93.2725 9.85153 92.9482 10.1745C92.6238 10.4975 92.3643 10.9174 92.1697 11.4342C91.9751 11.9295 91.8237 12.5001 91.7156 13.1461C91.6291 13.7706 91.5751 14.3951 91.5535 15.0195H96.5485Z" fill="#343434"/>
<path d="M104.138 20.2199C104.268 20.5644 104.43 20.8982 104.625 21.2212C104.841 21.5226 105.101 21.8026 105.403 22.061C105.706 22.2978 106.063 22.4916 106.474 22.6424C106.906 22.7931 107.403 22.8685 107.966 22.8685C108.723 22.8685 109.306 22.6747 109.717 22.2871C110.128 21.8995 110.333 21.4796 110.333 21.0274C110.333 20.5321 110.15 20.1337 109.782 19.8323C109.414 19.5308 108.95 19.2616 108.387 19.0248C107.847 18.7664 107.252 18.508 106.603 18.2496C105.955 17.9912 105.349 17.6682 104.787 17.2806C104.246 16.8714 103.792 16.3654 103.425 15.7625C103.057 15.1595 102.873 14.3843 102.873 13.4368C102.873 12.5324 103.036 11.7572 103.36 11.1112C103.706 10.4437 104.149 9.90537 104.69 9.49623C105.23 9.06556 105.836 8.75333 106.506 8.55953C107.198 8.34419 107.879 8.23653 108.55 8.23653C109.458 8.23653 110.258 8.36573 110.95 8.62413C111.663 8.88253 112.388 9.25936 113.123 9.75463C112.928 10.1853 112.766 10.6483 112.636 11.1435C112.507 11.6388 112.409 12.1233 112.344 12.597H111.436C111.371 12.3386 111.263 12.0587 111.112 11.7572C110.961 11.4342 110.755 11.1328 110.496 10.8528C110.236 10.5729 109.923 10.3468 109.555 10.1745C109.187 9.98073 108.744 9.88383 108.225 9.88383C107.576 9.88383 107.025 10.0561 106.571 10.4006C106.138 10.7452 105.922 11.1974 105.922 11.7572C105.922 12.274 106.106 12.6939 106.474 13.0169C106.863 13.3184 107.339 13.5876 107.901 13.8244C108.463 14.0613 109.079 14.2982 109.75 14.535C110.42 14.7719 111.036 15.0841 111.598 15.4718C112.161 15.8378 112.626 16.3223 112.993 16.9253C113.382 17.5282 113.577 18.3034 113.577 19.2509C113.577 20.1983 113.404 21.0166 113.058 21.7057C112.712 22.3732 112.247 22.9331 111.663 23.3853C111.079 23.8159 110.409 24.1282 109.652 24.322C108.917 24.5158 108.139 24.6127 107.317 24.6127C106.344 24.6127 105.468 24.4727 104.69 24.1928C103.911 23.9128 103.295 23.6221 102.841 23.3207C103.1 22.2871 103.263 21.2535 103.327 20.2199H104.138Z" fill="#343434"/>
<path d="M116.453 2.55171C116.453 1.84111 116.702 1.23817 117.199 0.742902C117.696 0.247634 118.302 0 119.015 0C119.729 0 120.334 0.247634 120.832 0.742902C121.329 1.23817 121.578 1.84111 121.578 2.55171C121.578 3.26231 121.329 3.86525 120.832 4.36051C120.334 4.85578 119.729 5.10342 119.015 5.10342C118.302 5.10342 117.696 4.85578 117.199 4.36051C116.702 3.86525 116.453 3.26231 116.453 2.55171ZM116.842 15.8271C116.842 14.5135 116.821 13.2861 116.777 12.1448C116.756 10.982 116.691 9.81923 116.583 8.65643C116.886 8.6995 117.242 8.74256 117.653 8.78563C118.064 8.80716 118.518 8.81793 119.015 8.81793C120.032 8.81793 120.843 8.7641 121.448 8.65643C121.34 9.81923 121.264 10.982 121.221 12.1448C121.199 13.2861 121.189 14.5135 121.189 15.8271V17.1191C121.189 18.4326 121.199 19.6708 121.221 20.8336C121.264 21.9964 121.34 23.1161 121.448 24.1928C121.167 24.1497 120.81 24.1282 120.378 24.1282C119.967 24.1282 119.513 24.1282 119.015 24.1282C118.518 24.1282 118.064 24.1282 117.653 24.1282C117.242 24.1282 116.886 24.1497 116.583 24.1928C116.691 23.1161 116.756 21.9964 116.777 20.8336C116.821 19.6708 116.842 18.4326 116.842 17.1191V15.8271Z" fill="#343434"/>
<path d="M125.513 19.8323C125.513 17.722 125.491 15.784 125.448 14.0182C125.405 12.2525 125.34 10.4652 125.253 8.65643C125.621 8.6995 125.999 8.74256 126.389 8.78563C126.778 8.80716 127.156 8.81793 127.524 8.81793C127.891 8.81793 128.259 8.80716 128.627 8.78563C129.016 8.74256 129.394 8.6995 129.762 8.65643C129.719 9.0225 129.665 9.46393 129.6 9.98073C129.556 10.476 129.535 10.9605 129.535 11.4342H129.6C129.902 10.5298 130.454 9.77617 131.254 9.17323C132.054 8.54876 133.038 8.23653 134.206 8.23653C135.027 8.23653 135.816 8.38726 136.573 8.68873C137.33 8.9902 138 9.46393 138.584 10.1099C139.168 10.7559 139.633 11.585 139.979 12.597C140.325 13.6091 140.498 14.815 140.498 16.2147C140.498 17.7435 140.314 19.0463 139.947 20.123C139.579 21.1996 139.092 22.0825 138.487 22.7716C137.903 23.4391 137.222 23.9128 136.444 24.1928C135.687 24.4727 134.908 24.6127 134.108 24.6127C133.135 24.6127 132.292 24.4296 131.578 24.0636C130.865 23.6975 130.313 23.1269 129.924 22.3517H129.859V24.968C129.859 25.7217 129.859 26.4861 129.859 27.2613C129.881 28.058 129.902 28.8117 129.924 29.5223C129.946 30.2329 129.967 30.8681 129.989 31.428C130.032 31.9879 130.075 32.4078 130.119 32.6877C129.838 32.6446 129.481 32.6016 129.048 32.5585C128.616 32.537 128.162 32.5262 127.686 32.5262C127.21 32.5262 126.756 32.537 126.324 32.5585C125.891 32.6016 125.535 32.6446 125.253 32.6877C125.297 31.7833 125.329 30.8897 125.351 30.0068C125.394 29.1239 125.426 28.2303 125.448 27.3259C125.47 26.4215 125.48 25.5063 125.48 24.5804C125.502 23.6544 125.513 22.6639 125.513 21.6088V19.8323ZM135.698 16.3116C135.698 14.1797 135.427 12.6401 134.887 11.6926C134.368 10.7236 133.676 10.2391 132.811 10.2391C132.4 10.2391 132.011 10.3576 131.643 10.5944C131.276 10.8313 130.94 11.2081 130.638 11.7249C130.357 12.2417 130.13 12.92 129.957 13.7598C129.784 14.5996 129.697 15.6225 129.697 16.8284C129.697 18.7879 129.946 20.2414 130.443 21.1889C130.962 22.1148 131.708 22.5778 132.681 22.5778C133.611 22.5778 134.346 22.0717 134.887 21.0597C135.427 20.0476 135.698 18.4649 135.698 16.3116Z" fill="#343434"/>
<path d="M147.428 16.4731C147.428 17.3344 147.515 18.1419 147.688 18.8956C147.861 19.6492 148.12 20.306 148.466 20.8659C148.834 21.4042 149.288 21.8349 149.828 22.1579C150.391 22.4593 151.039 22.6101 151.775 22.6101C153.267 22.6101 154.596 22.1256 155.764 21.1566L156.153 21.4473L155.44 23.2561C154.899 23.6652 154.25 23.9882 153.494 24.2251C152.737 24.4835 151.742 24.6127 150.51 24.6127C149.45 24.6127 148.444 24.4619 147.493 24.1605C146.542 23.8805 145.698 23.4068 144.963 22.7393C144.25 22.0717 143.677 21.2319 143.244 20.2199C142.833 19.1863 142.628 17.9589 142.628 16.5377C142.628 15.138 142.812 13.9213 143.179 12.8877C143.568 11.8541 144.098 10.9928 144.768 10.3037C145.439 9.61467 146.228 9.09786 147.136 8.75333C148.066 8.40879 149.072 8.23653 150.153 8.23653C152.293 8.23653 153.926 8.861 155.05 10.1099C156.197 11.3589 156.77 13.1246 156.77 15.4072V16.0855C156.77 16.2793 156.759 16.4085 156.737 16.4731H147.428ZM152.423 15.0195C152.38 13.4045 152.175 12.1125 151.807 11.1435C151.461 10.1745 150.866 9.69003 150.023 9.69003C149.547 9.69003 149.147 9.85153 148.823 10.1745C148.499 10.4975 148.239 10.9174 148.044 11.4342C147.85 11.9295 147.698 12.5001 147.59 13.1461C147.504 13.7706 147.45 14.3951 147.428 15.0195H152.423Z" fill="#343434"/>
<path d="M160.013 20.2199C160.143 20.5644 160.305 20.8982 160.5 21.2212C160.716 21.5226 160.975 21.8026 161.278 22.061C161.581 22.2978 161.938 22.4916 162.348 22.6424C162.781 22.7931 163.278 22.8685 163.84 22.8685C164.597 22.8685 165.181 22.6747 165.592 22.2871C166.003 21.8995 166.208 21.4796 166.208 21.0274C166.208 20.5321 166.024 20.1337 165.657 19.8323C165.289 19.5308 164.824 19.2616 164.262 19.0248C163.721 18.7664 163.127 18.508 162.478 18.2496C161.829 17.9912 161.224 17.6682 160.662 17.2806C160.121 16.8714 159.667 16.3654 159.299 15.7625C158.932 15.1595 158.748 14.3843 158.748 13.4368C158.748 12.5324 158.91 11.7572 159.235 11.1112C159.581 10.4437 160.024 9.90537 160.564 9.49623C161.105 9.06556 161.71 8.75333 162.381 8.55953C163.073 8.34419 163.754 8.23653 164.424 8.23653C165.332 8.23653 166.132 8.36573 166.824 8.62413C167.538 8.88253 168.262 9.25936 168.998 9.75463C168.803 10.1853 168.641 10.6483 168.511 11.1435C168.381 11.6388 168.284 12.1233 168.219 12.597H167.311C167.246 12.3386 167.138 12.0587 166.987 11.7572C166.835 11.4342 166.63 11.1328 166.37 10.8528C166.111 10.5729 165.797 10.3468 165.43 10.1745C165.062 9.98073 164.619 9.88383 164.1 9.88383C163.451 9.88383 162.9 10.0561 162.446 10.4006C162.013 10.7452 161.797 11.1974 161.797 11.7572C161.797 12.274 161.981 12.6939 162.348 13.0169C162.738 13.3184 163.213 13.5876 163.776 13.8244C164.338 14.0613 164.954 14.2982 165.624 14.535C166.295 14.7719 166.911 15.0841 167.473 15.4718C168.035 15.8378 168.5 16.3223 168.868 16.9253C169.257 17.5282 169.452 18.3034 169.452 19.2509C169.452 20.1983 169.279 21.0166 168.933 21.7057C168.587 22.3732 168.122 22.9331 167.538 23.3853C166.954 23.8159 166.284 24.1282 165.527 24.322C164.792 24.5158 164.013 24.6127 163.192 24.6127C162.219 24.6127 161.343 24.4727 160.564 24.1928C159.786 23.9128 159.17 23.6221 158.716 23.3207C158.975 22.2871 159.137 21.2535 159.202 20.2199H160.013Z" fill="#343434"/>
<path d="M3.99498 48.1253C3.37207 48.1253 2.81424 47.9632 2.32149 47.6392C1.83804 47.3059 1.44756 46.9031 1.15005 46.431V50.9445H0.452765V40.7648H1.09427V42.2091C1.39178 41.7462 1.78691 41.3712 2.27966 41.0842C2.77241 40.7879 3.29305 40.6398 3.84158 40.6398C4.34363 40.6398 4.80384 40.7463 5.22221 40.9592C5.64988 41.1629 6.01712 41.4453 6.32392 41.8064C6.64003 42.1582 6.88175 42.5563 7.0491 43.0007C7.22575 43.4451 7.31407 43.908 7.31407 44.3895C7.31407 45.0561 7.17461 45.6764 6.8957 46.2504C6.61678 46.8152 6.2263 47.2688 5.72426 47.6114C5.23151 47.954 4.65508 48.1253 3.99498 48.1253ZM3.82763 47.5003C4.38546 47.5003 4.87357 47.3522 5.29194 47.0559C5.71031 46.7504 6.03106 46.3615 6.25419 45.8893C6.48662 45.4079 6.60284 44.908 6.60284 44.3895C6.60284 43.834 6.47268 43.3201 6.21236 42.8479C5.96133 42.3758 5.61269 41.9962 5.16643 41.7092C4.72946 41.4129 4.24136 41.2648 3.70212 41.2648C3.4511 41.2648 3.18148 41.3203 2.89327 41.4314C2.61436 41.5332 2.34474 41.6768 2.08442 41.8619C1.83339 42.0378 1.61956 42.2415 1.44291 42.473C1.27556 42.7044 1.17794 42.9498 1.15005 43.209V45.5838C1.3081 45.9356 1.52194 46.2597 1.79156 46.556C2.07047 46.843 2.38193 47.0744 2.72592 47.2503C3.07921 47.417 3.44645 47.5003 3.82763 47.5003Z" fill="#343434"/>
<path d="M12.0738 48.1253C11.3951 48.1253 10.7815 47.954 10.233 47.6114C9.69374 47.2688 9.26608 46.8106 8.94997 46.2365C8.64316 45.6625 8.48976 45.0329 8.48976 44.3478C8.48976 43.6719 8.64316 43.0563 8.94997 42.5008C9.25678 41.936 9.6798 41.487 10.219 41.1537C10.7583 40.8111 11.3626 40.6398 12.032 40.6398C12.72 40.6398 13.3289 40.8111 13.8589 41.1537C14.3981 41.487 14.8211 41.936 15.1279 42.5008C15.4347 43.0655 15.5881 43.6812 15.5881 44.3478C15.5881 44.4589 15.5835 44.5608 15.5742 44.6533H9.21494C9.25213 45.2089 9.40553 45.7088 9.67515 46.1532C9.94477 46.5884 10.2888 46.9355 10.7071 47.1948C11.1348 47.4448 11.5997 47.5697 12.1017 47.5697C12.6038 47.5697 13.0779 47.4401 13.5242 47.1809C13.9704 46.9217 14.2819 46.5884 14.4585 46.181L15.0722 46.3476C14.9327 46.6902 14.7096 46.9957 14.4028 47.2642C14.1052 47.5327 13.752 47.7457 13.3429 47.9031C12.9431 48.0512 12.5201 48.1253 12.0738 48.1253ZM9.18705 44.1117H14.9187C14.8816 43.547 14.7282 43.047 14.4585 42.6119C14.1982 42.1674 13.8589 41.8249 13.4405 41.5842C13.0221 41.3342 12.5573 41.2092 12.0459 41.2092C11.5346 41.2092 11.0697 41.3342 10.6514 41.5842C10.233 41.8341 9.89363 42.1813 9.63331 42.6257C9.37299 43.0609 9.22424 43.5562 9.18705 44.1117Z" fill="#343434"/>
<path d="M22.9795 49.6529V47.9864H17.1223V40.7648H17.8196V47.3614H21.9336V40.7648H22.6309V47.3614H23.6071V49.6529H22.9795Z" fill="#343434"/>
<path d="M28.185 48.1253C27.5063 48.1253 26.8927 47.954 26.3441 47.6114C25.8049 47.2688 25.3772 46.8106 25.0611 46.2365C24.7543 45.6625 24.6009 45.0329 24.6009 44.3478C24.6009 43.6719 24.7543 43.0563 25.0611 42.5008C25.3679 41.936 25.7909 41.487 26.3302 41.1537C26.8694 40.8111 27.4737 40.6398 28.1431 40.6398C28.8311 40.6398 29.4401 40.8111 29.97 41.1537C30.5093 41.487 30.9323 41.936 31.2391 42.5008C31.5459 43.0655 31.6993 43.6812 31.6993 44.3478C31.6993 44.4589 31.6946 44.5608 31.6853 44.6533H25.3261C25.3633 45.2089 25.5167 45.7088 25.7863 46.1532C26.0559 46.5884 26.3999 46.9355 26.8183 47.1948C27.246 47.4448 27.7108 47.5697 28.2129 47.5697C28.7149 47.5697 29.1891 47.4401 29.6353 47.1809C30.0816 46.9217 30.393 46.5884 30.5697 46.181L31.1833 46.3476C31.0438 46.6902 30.8207 46.9957 30.5139 47.2642C30.2164 47.5327 29.8631 47.7457 29.454 47.9031C29.0542 48.0512 28.6312 48.1253 28.185 48.1253ZM25.2982 44.1117H31.0299C30.9927 43.547 30.8393 43.047 30.5697 42.6119C30.3094 42.1674 29.97 41.8249 29.5516 41.5842C29.1333 41.3342 28.6684 41.2092 28.1571 41.2092C27.6457 41.2092 27.1809 41.3342 26.7625 41.5842C26.3441 41.8341 26.0048 42.1813 25.7445 42.6257C25.4841 43.0609 25.3354 43.5562 25.2982 44.1117Z" fill="#343434"/>
<path d="M33.2334 47.9864V40.7648H38.8815V47.9864H38.1842V41.3897H33.9307V47.9864H33.2334Z" fill="#343434"/>
<path d="M42.9191 47.9864V41.3897H40.2554V40.7648H46.2939V41.3897H43.6164V47.9864H42.9191Z" fill="#343434"/>
<path d="M47.6422 47.9864V40.7648H48.3395V43.3896H50.1246C50.9334 43.3896 51.5377 43.5979 51.9375 44.0145C52.3466 44.4311 52.5511 44.9728 52.5511 45.6394C52.5511 46.0745 52.4628 46.468 52.2862 46.8198C52.1095 47.1716 51.8445 47.454 51.4912 47.667C51.138 47.8799 50.701 47.9864 50.1803 47.9864H47.6422ZM53.9318 47.9864V40.7787H54.629V47.9864H53.9318ZM48.3395 47.417H50.1106C50.5197 47.417 50.8497 47.3337 51.1008 47.167C51.3611 47.0004 51.547 46.7828 51.6586 46.5143C51.7795 46.2458 51.8399 45.9588 51.8399 45.6533C51.8399 45.357 51.7888 45.0792 51.6865 44.82C51.5842 44.5608 51.4029 44.3524 51.1426 44.195C50.8823 44.0377 50.529 43.959 50.0827 43.959H48.3395V47.417Z" fill="#343434"/>
<path d="M60.4031 47.9864V40.7648H61.1004V43.9728H65.577V40.7648H66.2743V47.9864H65.577V44.5978H61.1004V47.9864H60.4031Z" fill="#343434"/>
<path d="M67.8522 45.9032C67.8522 45.4773 67.9777 45.1024 68.2288 44.7783C68.4891 44.4543 68.847 44.2043 69.3026 44.0284C69.7674 43.8432 70.2974 43.7506 70.8924 43.7506C71.2643 43.7506 71.6501 43.7831 72.0499 43.8479C72.459 43.9127 72.8169 44.0006 73.1237 44.1117V43.4312C73.1237 42.7646 72.9285 42.2323 72.538 41.8342C72.1475 41.436 71.6176 41.237 70.9482 41.237C70.5856 41.237 70.209 41.311 69.8186 41.4592C69.4281 41.6073 69.0283 41.8203 68.6192 42.098L68.3264 41.5981C69.2747 40.9592 70.1719 40.6398 71.0179 40.6398C71.8732 40.6398 72.5519 40.8944 73.054 41.4036C73.5653 41.9128 73.821 42.6072 73.821 43.4868V47.0698C73.821 47.292 73.9233 47.4077 74.1278 47.417V47.9864C73.9512 48.0049 73.8349 48.0095 73.7792 48.0003C73.6025 47.9818 73.4631 47.9077 73.3608 47.7781C73.2678 47.6484 73.2167 47.5142 73.2074 47.3753V46.8059C72.8727 47.2226 72.4404 47.5466 71.9104 47.7781C71.3898 48.0095 70.8413 48.1253 70.2648 48.1253C69.8093 48.1253 69.3955 48.028 69.0237 47.8336C68.6611 47.6299 68.3728 47.3614 68.159 47.0281C67.9545 46.6948 67.8522 46.3199 67.8522 45.9032ZM72.8448 46.5004C73.0307 46.2689 73.1237 46.0514 73.1237 45.8477V44.6533C72.4543 44.3941 71.7338 44.2645 70.9621 44.2645C70.2276 44.2645 69.6373 44.4126 69.191 44.7089C68.7447 44.9959 68.5216 45.3801 68.5216 45.8616C68.5216 46.1671 68.6006 46.4495 68.7587 46.7087C68.9167 46.968 69.1352 47.1763 69.4141 47.3337C69.7023 47.4911 70.0324 47.5697 70.4043 47.5697C70.9249 47.5697 71.4037 47.4725 71.8407 47.2781C72.2777 47.0744 72.6124 46.8152 72.8448 46.5004Z" fill="#343434"/>
<path d="M78.7849 48.0142V47.3753C79.0359 47.3753 79.2637 47.3059 79.4683 47.167C79.6728 47.0189 79.8541 46.7735 80.0121 46.431C80.1702 46.0884 80.2957 45.6162 80.3887 45.0144C80.4909 44.4034 80.556 43.6349 80.5839 42.7091L80.6536 40.7648H85.1721V47.9864H84.4748V41.3897H81.2812L81.2533 42.7507C81.2068 44.1117 81.086 45.1764 80.8907 45.9449C80.6955 46.7041 80.4212 47.2411 80.0679 47.5559C79.7146 47.8614 79.287 48.0142 78.7849 48.0142Z" fill="#343434"/>
<path d="M92.8917 48.1253C92.2595 48.1253 91.697 47.9818 91.2043 47.6947C90.7208 47.3985 90.335 46.9911 90.0468 46.4726C89.7678 45.9542 89.6098 45.357 89.5726 44.6811H88.0386V47.9864H87.3413V40.7648H88.0386V44.0701H89.5726C89.6191 43.3757 89.7864 42.7739 90.0746 42.2647C90.3722 41.7555 90.7626 41.3573 91.2461 41.0703C91.7388 40.7833 92.2874 40.6398 92.8917 40.6398C93.589 40.6398 94.1933 40.8065 94.7046 41.1398C95.216 41.4638 95.6111 41.9082 95.89 42.473C96.1782 43.0377 96.3223 43.6766 96.3223 44.3895C96.3223 45.1302 96.1736 45.7829 95.8761 46.3476C95.5879 46.9031 95.1834 47.3383 94.6628 47.6531C94.1515 47.9679 93.5611 48.1253 92.8917 48.1253ZM92.8917 47.5003C93.4402 47.5003 93.9144 47.3707 94.3142 47.1115C94.7232 46.843 95.0393 46.4726 95.2625 46.0004C95.4949 45.5283 95.6111 44.9913 95.6111 44.3895C95.6111 43.7506 95.4902 43.1998 95.2485 42.7368C95.0161 42.2647 94.6953 41.9036 94.2863 41.6536C93.8772 41.3944 93.4123 41.2648 92.8917 41.2648C92.371 41.2648 91.9108 41.399 91.5111 41.6675C91.1206 41.9267 90.8138 42.2924 90.5906 42.7646C90.3675 43.2368 90.2559 43.7784 90.2559 44.3895C90.2559 45.0283 90.3675 45.5792 90.5906 46.0421C90.8231 46.505 91.1345 46.8661 91.525 47.1253C91.9248 47.3753 92.3803 47.5003 92.8917 47.5003Z" fill="#343434"/>
<path d="M101.255 48.1253C100.102 48.1253 99.2324 47.7688 98.6467 47.0559C98.061 46.343 97.7681 45.3755 97.7681 44.1534C97.7681 43.2461 97.8379 42.4822 97.9773 41.8619C98.1261 41.2416 98.3399 40.7278 98.6188 40.3204C98.907 39.913 99.2557 39.5797 99.6647 39.3205C100.074 39.0612 100.548 38.8437 101.087 38.6678L104.113 37.6123L104.211 38.2234L101.31 39.2233C100.706 39.4362 100.204 39.6954 99.8042 40.001C99.4044 40.2972 99.093 40.6861 98.8698 41.1675C98.656 41.649 98.5212 42.2647 98.4654 43.0146C98.6978 42.4406 99.0697 42.0008 99.5811 41.6953C100.102 41.3897 100.706 41.237 101.394 41.237C102.11 41.237 102.714 41.3805 103.207 41.6675C103.709 41.9545 104.09 42.3573 104.351 42.8757C104.611 43.3849 104.741 43.9728 104.741 44.6395C104.741 45.7042 104.439 46.5513 103.835 47.1809C103.24 47.8105 102.38 48.1253 101.255 48.1253ZM101.255 47.5003C102.147 47.5003 102.83 47.2457 103.305 46.7365C103.788 46.218 104.03 45.5283 104.03 44.6672C104.03 43.834 103.793 43.1535 103.319 42.6257C102.854 42.098 102.166 41.8342 101.255 41.8342C100.734 41.8342 100.264 41.9453 99.846 42.1675C99.4277 42.3804 99.093 42.6998 98.8419 43.1257C98.6002 43.5423 98.4794 44.0562 98.4794 44.6672C98.4794 45.2042 98.5863 45.6903 98.8001 46.1254C99.0139 46.5513 99.3254 46.8893 99.7345 47.1392C100.144 47.38 100.65 47.5003 101.255 47.5003Z" fill="#343434"/>
<path d="M109.448 48.1253C108.769 48.1253 108.16 47.954 107.621 47.6114C107.091 47.2688 106.673 46.8152 106.366 46.2504C106.059 45.6857 105.906 45.0653 105.906 44.3895C105.906 43.8803 105.994 43.4035 106.171 42.959C106.347 42.5054 106.598 42.1073 106.924 41.7647C107.249 41.4129 107.626 41.1398 108.053 40.9453C108.481 40.7417 108.946 40.6398 109.448 40.6398C109.95 40.6398 110.415 40.7417 110.842 40.9453C111.27 41.1398 111.642 41.4129 111.958 41.7647C112.284 42.1073 112.535 42.5054 112.711 42.959C112.897 43.4035 112.99 43.8803 112.99 44.3895C112.99 45.0653 112.832 45.6857 112.516 46.2504C112.209 46.8152 111.786 47.2688 111.247 47.6114C110.717 47.954 110.117 48.1253 109.448 48.1253ZM106.603 44.4173C106.603 44.982 106.728 45.5005 106.979 45.9727C107.24 46.4356 107.584 46.8059 108.011 47.0837C108.439 47.3614 108.913 47.5003 109.434 47.5003C109.955 47.5003 110.429 47.3614 110.856 47.0837C111.293 46.7967 111.637 46.4171 111.888 45.9449C112.149 45.4727 112.279 44.9496 112.279 44.3756C112.279 43.8108 112.149 43.2924 111.888 42.8202C111.637 42.348 111.293 41.973 110.856 41.6953C110.429 41.4083 109.959 41.2648 109.448 41.2648C108.927 41.2648 108.453 41.4083 108.025 41.6953C107.598 41.9823 107.254 42.3665 106.993 42.8479C106.733 43.3201 106.603 43.8432 106.603 44.4173Z" fill="#343434"/>
<path d="M114.661 47.9864V40.7787H115.358V47.042L120.072 40.7648H120.713V47.9864H120.016V41.8203L115.358 47.9864H114.661ZM117.687 39.7649C117.092 39.7649 116.622 39.626 116.278 39.3483C115.944 39.0612 115.776 38.7002 115.776 38.265H116.306C116.306 38.5705 116.423 38.8205 116.655 39.015C116.897 39.2094 117.241 39.3066 117.687 39.3066C118.133 39.3066 118.468 39.214 118.691 39.0288C118.924 38.8344 119.049 38.5798 119.068 38.265H119.598C119.598 38.7002 119.426 39.0612 119.082 39.3483C118.747 39.626 118.282 39.7649 117.687 39.7649Z" fill="#343434"/>
<path d="M129.537 48.1253C128.858 48.1253 128.249 47.954 127.71 47.6114C127.171 47.2688 126.743 46.8106 126.427 46.2365C126.111 45.6625 125.953 45.0329 125.953 44.3478C125.953 43.6627 126.106 43.0424 126.413 42.4869C126.72 41.9221 127.143 41.4731 127.682 41.1398C128.221 40.8065 128.835 40.6398 129.523 40.6398C130.183 40.6398 130.764 40.7926 131.266 41.0981C131.768 41.3944 132.145 41.8017 132.396 42.3202L131.712 42.5424C131.498 42.1443 131.192 41.8341 130.792 41.6119C130.401 41.3805 129.969 41.2648 129.495 41.2648C128.965 41.2648 128.486 41.4036 128.059 41.6814C127.631 41.9499 127.287 42.3156 127.027 42.7785C126.775 43.2414 126.65 43.7645 126.65 44.3478C126.65 44.9311 126.78 45.4635 127.04 45.9449C127.301 46.4171 127.645 46.7967 128.072 47.0837C128.509 47.3614 128.988 47.5003 129.509 47.5003C129.844 47.5003 130.169 47.4401 130.485 47.3198C130.81 47.1902 131.089 47.0235 131.322 46.8198C131.564 46.6161 131.722 46.3986 131.796 46.1671L132.479 46.3615C132.358 46.7041 132.149 47.0096 131.852 47.2781C131.564 47.5373 131.22 47.7457 130.82 47.9031C130.42 48.0512 129.992 48.1253 129.537 48.1253Z" fill="#343434"/>
<path d="M133.315 48.0142V47.3753C133.566 47.3753 133.794 47.3059 133.998 47.167C134.203 47.0189 134.384 46.7735 134.542 46.431C134.7 46.0884 134.826 45.6162 134.919 45.0144C135.021 44.4034 135.086 43.6349 135.114 42.7091L135.184 40.7648H139.702V47.9864H139.005V41.3897H135.811L135.783 42.7507C135.737 44.1117 135.616 45.1764 135.421 45.9449C135.226 46.7041 134.951 47.2411 134.598 47.5559C134.245 47.8614 133.817 48.0142 133.315 48.0142Z" fill="#343434"/>
<path d="M142.569 51C142.262 51 141.941 50.8982 141.606 50.6945L141.871 50.1806C141.992 50.2547 142.104 50.3102 142.206 50.3473C142.308 50.3936 142.42 50.4167 142.541 50.4167C142.801 50.4167 143.043 50.2825 143.266 50.014C143.498 49.7455 143.717 49.3613 143.921 48.8613L144.312 47.9586L141.021 40.7648H141.76L144.633 47.2503L147.296 40.7648H148.007L144.479 49.0974C144.191 49.7733 143.893 50.2593 143.587 50.5556C143.289 50.8519 142.95 51 142.569 51Z" fill="#343434"/>
<path d="M153.586 47.9864V44.8478C152.982 45.1348 152.303 45.2783 151.55 45.2783C150.741 45.2783 150.142 45.0746 149.751 44.6672C149.361 44.2599 149.165 43.6303 149.165 42.7785V40.7648H149.863V42.6952C149.863 43.3988 150.002 43.9127 150.281 44.2367C150.569 44.5515 151.03 44.7089 151.662 44.7089C152.024 44.7089 152.382 44.6672 152.736 44.5839C153.089 44.5006 153.372 44.3987 153.586 44.2784V40.7648H154.284V47.9864H153.586Z" fill="#343434"/>
<path d="M155.857 45.9032C155.857 45.4773 155.983 45.1024 156.234 44.7783C156.494 44.4543 156.852 44.2043 157.308 44.0284C157.773 43.8432 158.303 43.7506 158.898 43.7506C159.27 43.7506 159.655 43.7831 160.055 43.8479C160.464 43.9127 160.822 44.0006 161.129 44.1117V43.4312C161.129 42.7646 160.934 42.2323 160.543 41.8342C160.153 41.436 159.623 41.237 158.953 41.237C158.591 41.237 158.214 41.311 157.824 41.4592C157.433 41.6073 157.034 41.8203 156.624 42.098L156.332 41.5981C157.28 40.9592 158.177 40.6398 159.023 40.6398C159.879 40.6398 160.557 40.8944 161.059 41.4036C161.571 41.9128 161.826 42.6072 161.826 43.4868V47.0698C161.826 47.292 161.929 47.4077 162.133 47.417V47.9864C161.956 48.0049 161.84 48.0095 161.784 48.0003C161.608 47.9818 161.468 47.9077 161.366 47.7781C161.273 47.6484 161.222 47.5142 161.213 47.3753V46.8059C160.878 47.2226 160.446 47.5466 159.916 47.7781C159.395 48.0095 158.847 48.1253 158.27 48.1253C157.815 48.1253 157.401 48.028 157.029 47.8336C156.666 47.6299 156.378 47.3614 156.164 47.0281C155.96 46.6948 155.857 46.3199 155.857 45.9032ZM160.85 46.5004C161.036 46.2689 161.129 46.0514 161.129 45.8477V44.6533C160.46 44.3941 159.739 44.2645 158.967 44.2645C158.233 44.2645 157.643 44.4126 157.196 44.7089C156.75 44.9959 156.527 45.3801 156.527 45.8616C156.527 46.1671 156.606 46.4495 156.764 46.7087C156.922 46.968 157.14 47.1763 157.419 47.3337C157.708 47.4911 158.038 47.5697 158.41 47.5697C158.93 47.5697 159.409 47.4725 159.846 47.2781C160.283 47.0744 160.618 46.8152 160.85 46.5004Z" fill="#343434"/>
<path d="M163.948 47.9864V40.7787H164.645V47.042L169.358 40.7648H170V47.9864H169.303V41.8203L164.645 47.9864H163.948ZM166.974 39.7649C166.379 39.7649 165.909 39.626 165.565 39.3483C165.231 39.0612 165.063 38.7002 165.063 38.265H165.593C165.593 38.5705 165.709 38.8205 165.942 39.015C166.184 39.2094 166.527 39.3066 166.974 39.3066C167.42 39.3066 167.755 39.214 167.978 39.0288C168.21 38.8344 168.336 38.5798 168.354 38.265H168.884C168.884 38.7002 168.712 39.0612 168.368 39.3483C168.034 39.626 167.569 39.7649 166.974 39.7649Z" fill="#343434"/>
</svg>
