<svg width="70" height="59" viewBox="0 0 70 59" fill="none" xmlns="http://www.w3.org/2000/svg">
<path d="M20.3213 23.1833L31.4217 3.94528L41.588 21.5658C40.9621 21.5551 40.3356 21.5511 39.7111 21.5511C39.389 21.5511 39.0644 21.5528 38.7358 21.5551L31.4217 8.87786L23.457 22.6795C22.3992 22.8323 21.3514 23.0004 20.3213 23.1833ZM31.4217 12.8231L37.6055 23.5421C38.3034 23.529 39.0053 23.5238 39.7111 23.5238C41.5208 23.5238 43.3069 23.5646 45.0644 23.6436L31.4217 0L16.4308 25.9803C19.0344 25.3861 21.7958 24.8888 24.6833 24.501L31.4217 12.8231Z" fill="#0F00B6"/>
<path d="M40.2778 28.1727L44.1155 34.8239H18.7475C24.1201 31.8254 31.5894 29.4894 40.2778 28.1727ZM22.2278 59C14.4958 55.6003 9.77061 51.0503 9.77061 46.0518C9.77061 44.388 10.2937 42.7745 11.2775 41.2358H55.2153L47.2104 27.3636C50.2561 27.1106 53.4095 26.9774 56.6393 26.9774C60.9895 26.9774 65.2021 27.2187 69.1983 27.6709C69.4665 27.7012 69.7334 27.7316 70 27.7639C69.2955 27.5853 68.579 27.4149 67.849 27.252C67.8487 27.252 67.8484 27.2517 67.8477 27.2517C61.321 25.7955 53.8119 24.962 45.8194 24.9532C45.7721 24.9522 45.7241 24.9522 45.6768 24.9522C43.8574 24.9522 42.0637 24.9953 40.3007 25.0782C39.7127 25.106 39.1283 25.1383 38.5478 25.1749C32.9791 25.5245 27.7446 26.2777 23.0344 27.3581C22.6275 27.4515 22.2246 27.5471 21.8255 27.6454C19.033 28.3323 16.4392 29.1368 14.0866 30.0415C5.40512 33.3756 0 38.0721 0 43.2747C0 49.954 8.91113 55.7991 22.2278 59Z" fill="#0F00B6"/>
</svg>
