<svg width="261" height="48" viewBox="0 0 261 48" fill="none" xmlns="http://www.w3.org/2000/svg">
<path d="M87.8906 32.4219C87.7135 34.8698 86.8073 36.7969 85.1719 38.2031C83.5469 39.6094 81.401 40.3125 78.7344 40.3125C75.8177 40.3125 73.5208 39.3333 71.8438 37.375C70.1771 35.4062 69.3438 32.7083 69.3438 29.2812V27.8906C69.3438 25.7031 69.7292 23.776 70.5 22.1094C71.2708 20.4427 72.3698 19.1667 73.7969 18.2812C75.2344 17.3854 76.901 16.9375 78.7969 16.9375C81.4219 16.9375 83.5365 17.6406 85.1406 19.0469C86.7448 20.4531 87.6719 22.4271 87.9219 24.9688H83.2344C83.1198 23.5 82.7083 22.4375 82 21.7812C81.3021 21.1146 80.2344 20.7812 78.7969 20.7812C77.2344 20.7812 76.0625 21.3438 75.2812 22.4688C74.5104 23.5833 74.1146 25.3177 74.0938 27.6719V29.3906C74.0938 31.849 74.4635 33.6458 75.2031 34.7812C75.9531 35.9167 77.1302 36.4844 78.7344 36.4844C80.1823 36.4844 81.2604 36.1562 81.9688 35.5C82.6875 34.8333 83.099 33.8073 83.2031 32.4219H87.8906ZM100.859 23.0938H105.375V40H100.859V29.5625L95.2031 40H90.6719V23.0938H95.2031V33.5156L100.859 23.0938ZM117.219 24.0312C119.385 24.0312 121.115 24.75 122.406 26.1875C123.698 27.625 124.344 29.5781 124.344 32.0469V32.2656C124.344 34.7031 123.625 36.6562 122.188 38.125C120.75 39.5938 118.818 40.3281 116.391 40.3281C113.953 40.3281 112.01 39.5365 110.562 37.9531C109.125 36.3594 108.406 34.1979 108.406 31.4688V30.7188C108.427 26.9167 109.068 23.9427 110.328 21.7969C111.599 19.6406 113.505 18.2812 116.047 17.7188C117.38 17.4271 118.24 17.1406 118.625 16.8594C119.01 16.5677 119.203 16.1667 119.203 15.6562H122.859C122.859 17.2917 122.417 18.5208 121.531 19.3438C120.656 20.1667 119.094 20.8021 116.844 21.25C115.51 21.5208 114.458 22.0469 113.688 22.8281C112.917 23.6094 112.396 24.7083 112.125 26.125C113.562 24.7292 115.26 24.0312 117.219 24.0312ZM116.359 27.6875C115.286 27.6875 114.443 28.0469 113.828 28.7656C113.224 29.4844 112.922 30.651 112.922 32.2656C112.922 33.7031 113.219 34.8021 113.812 35.5625C114.406 36.3125 115.266 36.6875 116.391 36.6875C117.484 36.6875 118.328 36.3177 118.922 35.5781C119.516 34.8385 119.818 33.75 119.828 32.3125V31.9375C119.828 30.5521 119.521 29.5 118.906 28.7812C118.302 28.0521 117.453 27.6875 116.359 27.6875ZM136.953 23.0938H141.469V40H136.953V29.5625L131.297 40H126.766V23.0938H131.297V33.5156L136.953 23.0938ZM160.141 31.7031C160.141 34.3073 159.547 36.3958 158.359 37.9688C157.182 39.5312 155.589 40.3125 153.578 40.3125C151.87 40.3125 150.49 39.7188 149.438 38.5312V46.5H144.922V23.0938H149.109L149.266 24.75C150.359 23.4375 151.786 22.7812 153.547 22.7812C155.63 22.7812 157.25 23.5521 158.406 25.0938C159.562 26.6354 160.141 28.7604 160.141 31.4688V31.7031ZM155.625 31.375C155.625 29.8021 155.344 28.5885 154.781 27.7344C154.229 26.8802 153.422 26.4531 152.359 26.4531C150.943 26.4531 149.969 26.9948 149.438 28.0781V35C149.99 36.1146 150.974 36.6719 152.391 36.6719C154.547 36.6719 155.625 34.9062 155.625 31.375ZM167.469 28.0469H170.703C172.161 28.0469 173.443 28.2917 174.547 28.7812C175.651 29.2708 176.495 29.974 177.078 30.8906C177.672 31.7969 177.969 32.8542 177.969 34.0625C177.969 35.8438 177.307 37.2812 175.984 38.375C174.672 39.4583 172.88 40 170.609 40H162.938V23.0938H167.469V28.0469ZM167.469 31.6719V36.3906H170.672C171.568 36.3906 172.255 36.1823 172.734 35.7656C173.214 35.349 173.453 34.7812 173.453 34.0625C173.453 33.3333 173.219 32.7552 172.75 32.3281C172.281 31.8906 171.589 31.6719 170.672 31.6719H167.469ZM203.625 21.0469H193.469V25.4531H197.125C199.802 25.4531 201.922 26.1042 203.484 27.4062C205.057 28.6979 205.844 30.4427 205.844 32.6406C205.844 34.849 205.062 36.625 203.5 37.9688C201.948 39.3021 199.88 39.9792 197.297 40H188.734V17.25H203.625V21.0469ZM193.469 29.2344V36.2344H197.203C198.401 36.2344 199.354 35.9062 200.062 35.25C200.781 34.5938 201.141 33.7135 201.141 32.6094C201.141 31.5781 200.797 30.7656 200.109 30.1719C199.432 29.5677 198.5 29.2552 197.312 29.2344H193.469ZM218.344 40C218.135 39.5938 217.984 39.0885 217.891 38.4844C216.797 39.7031 215.375 40.3125 213.625 40.3125C211.969 40.3125 210.594 39.8333 209.5 38.875C208.417 37.9167 207.875 36.7083 207.875 35.25C207.875 33.4583 208.536 32.0833 209.859 31.125C211.193 30.1667 213.115 29.6823 215.625 29.6719H217.703V28.7031C217.703 27.9219 217.5 27.2969 217.094 26.8281C216.698 26.3594 216.068 26.125 215.203 26.125C214.443 26.125 213.844 26.3073 213.406 26.6719C212.979 27.0365 212.766 27.5365 212.766 28.1719H208.25C208.25 27.1927 208.552 26.2865 209.156 25.4531C209.76 24.6198 210.615 23.9688 211.719 23.5C212.823 23.0208 214.062 22.7812 215.438 22.7812C217.521 22.7812 219.172 23.3073 220.391 24.3594C221.62 25.401 222.234 26.8698 222.234 28.7656V36.0938C222.245 37.6979 222.469 38.9115 222.906 39.7344V40H218.344ZM214.609 36.8594C215.276 36.8594 215.891 36.7135 216.453 36.4219C217.016 36.1198 217.432 35.7188 217.703 35.2188V32.3125H216.016C213.755 32.3125 212.552 33.0938 212.406 34.6562L212.391 34.9219C212.391 35.4844 212.589 35.9479 212.984 36.3125C213.38 36.6771 213.922 36.8594 214.609 36.8594ZM240.359 40H235.828V33.5H230.219V40H225.703V23.0938H230.219V29.875H235.828V23.0938H240.359V40ZM250.484 33.7656H248.672V40H244.156V23.0938H248.672V29.4531H250.281L253.969 23.0938H259.672L254.141 31.1406L260.188 40H254.172L250.484 33.7656Z" fill="#1C1C1C"/>
<path d="M16.5819 40L16.5791 39.9945L3.03424 16.6666H0L13.5449 39.9952L13.5418 40H16.5819Z" fill="#E00606"/>
<path d="M28.7151 40L28.7123 39.9945L15.1672 16.6666H12.1339L25.6788 39.9945L25.675 40H28.7151Z" fill="#E00606"/>
<path d="M21.2338 16.6666H18.2006L31.7455 39.9945L31.7414 40H34.7815L21.2338 16.6666Z" fill="#E00606"/>
<path d="M39.8003 4.76837e-05H36.7661L25.6942 19.0706L27.2113 21.6828L39.8003 4.76837e-05Z" fill="#E00606"/>
<path d="M22.6486 40L22.6456 39.9945L9.10072 16.6666H6.06749L19.6124 39.9945L19.6086 40H22.6486Z" fill="#E00606"/>
<path d="M30.2446 26.9066L45.8668 5.53131e-05H42.8336L28.7274 24.2942L28.7439 24.3219L30.2446 26.9066Z" fill="#E00606"/>
<path d="M33.2778 32.1315L51.9335 3.43323e-05H48.9003L31.7607 29.5181L31.7771 29.5457L33.2778 32.1315Z" fill="#E00606"/>
<path d="M58 0H54.9668L34.7942 34.7429L34.8104 34.7706L36.3113 37.3554L58 0Z" fill="#E00606"/>
</svg>
