<svg width="18" height="18" viewBox="0 0 18 18" fill="none" xmlns="http://www.w3.org/2000/svg">
<path d="M11.3998 8.99035C11.3998 10.3158 10.3253 11.3903 8.99983 11.3903C7.67434 11.3903 6.59983 10.3158 6.59983 8.99035C6.59983 7.66487 7.67434 6.59035 8.99983 6.59035C10.3253 6.59035 11.3998 7.66487 11.3998 8.99035Z" fill="#FFFCFA"/>
<path fill-rule="evenodd" clip-rule="evenodd" d="M0 4.2C0 1.8804 1.8804 0 4.2 0H13.8C16.1196 0 18 1.8804 18 4.2V13.8C18 16.1196 16.1196 18 13.8 18H4.2C1.8804 18 0 16.1196 0 13.8V4.2ZM14.8391 4.20003C14.8391 4.86278 14.3019 5.40003 13.6391 5.40003C12.9764 5.40003 12.4391 4.86278 12.4391 4.20003C12.4391 3.53729 12.9764 3.00003 13.6391 3.00003C14.3019 3.00003 14.8391 3.53729 14.8391 4.20003ZM13.4998 8.99035C13.4998 11.4756 11.4851 13.4903 8.99983 13.4903C6.51455 13.4903 4.49983 11.4756 4.49983 8.99035C4.49983 6.50507 6.51455 4.49035 8.99983 4.49035C11.4851 4.49035 13.4998 6.50507 13.4998 8.99035Z" fill="#FFFCFA"/>
</svg>
