<svg width="23" height="14" viewBox="0 0 23 14" fill="none" xmlns="http://www.w3.org/2000/svg">
<path fill-rule="evenodd" clip-rule="evenodd" d="M11.253 13.9414H12.6278C12.6278 13.9414 13.0431 13.8927 13.2551 13.6489C13.4502 13.425 13.444 13.0046 13.444 13.0046C13.444 13.0046 13.4171 11.0363 14.2733 10.7464C15.1173 10.4609 16.2011 12.6487 17.3498 13.49C18.2185 14.1266 18.8785 13.987 18.8785 13.987L21.9501 13.9414C21.9501 13.9414 23.5568 13.8358 22.795 12.4878C22.7325 12.3776 22.3513 11.4907 20.5113 9.66834C18.5853 7.76103 18.8433 8.06953 21.1632 4.7703C22.5761 2.76104 23.1409 1.53436 22.9645 1.00898C22.7962 0.508577 21.7571 0.64084 21.7571 0.64084L18.2987 0.663828C18.2987 0.663828 18.0424 0.626514 17.8522 0.747782C17.6664 0.866719 17.5468 1.1439 17.5468 1.1439C17.5468 1.1439 16.9995 2.69874 16.2695 4.02103C14.7295 6.8112 14.1137 6.95846 13.8621 6.78522C13.2766 6.38143 13.4228 5.16309 13.4228 4.29755C13.4228 1.59366 13.8071 0.466267 12.6743 0.174424C12.2984 0.0774756 12.0217 0.0135099 11.0603 0.00318205C9.82637 -0.0104773 8.78192 0.00717947 8.19054 0.316347C7.79711 0.521904 7.49361 0.979992 7.67846 1.00631C7.90702 1.03896 8.42472 1.15523 8.69918 1.55402C9.05357 2.06841 9.04108 3.22379 9.04108 3.22379C9.04108 3.22379 9.24466 6.40675 8.56554 6.80221C8.09936 7.0734 7.45989 6.51969 6.08697 3.98838C5.38349 2.69174 4.85237 1.25851 4.85237 1.25851C4.85237 1.25851 4.74996 0.990652 4.56729 0.847396C4.3456 0.673822 4.03586 0.618519 4.03586 0.618519L0.749524 0.641506C0.749524 0.641506 0.256184 0.656166 0.0750839 0.885043C-0.0860324 1.0886 0.0622819 1.50971 0.0622819 1.50971C0.0622819 1.50971 2.63515 7.93227 5.54835 11.1689C8.21957 14.1363 11.253 13.9414 11.253 13.9414Z" fill="#FFFCFA"/>
</svg>
