<svg width="66" height="64" viewBox="0 0 66 64" fill="none" xmlns="http://www.w3.org/2000/svg">
<path d="M53.2805 23.9027C54.4237 23.1067 54.6681 21.9586 54.1479 20.7685C53.404 19.0666 51.266 17.6349 48.8087 17.9421C45.6125 18.3419 44.25 20.5336 43.6702 22.2023C42.4652 25.6718 44.9261 30.247 49.2207 28.4642C51.18 27.6508 50.4074 25.9041 53.2805 23.9027Z" fill="#231F20"/>
<path d="M57.1621 26.5336C56.2781 27.7551 58.9653 30.0818 59.8698 28.94C60.9795 27.5391 61.3964 25.4589 59.6274 25.4667C59.6274 25.4667 57.8856 25.533 57.1621 26.5336Z" fill="#231F20"/>
<path d="M61.5777 28.3182C60.9966 30.6598 59.0236 32.271 57.9205 33.0542C55.2069 34.982 52.282 36.1456 50.0482 36.5851C50.2427 34.0286 48.6138 30.9048 44.9261 30.247C41.6894 29.6696 40.3054 30.1104 36.8603 29.5724C34.2625 29.1674 30.603 26.2873 29.8399 21.5819C29.3187 18.3663 29.4909 16.3483 27.7527 16.0064C25.1093 15.4862 23.5168 20.6207 23.7809 24.4122C24.2046 30.4918 26.4081 35.8347 30.7547 38.6331C27.1357 38.6331 21.7903 38.6316 18.9301 38.6311C22.522 35.7056 22.5114 30.7518 20.5244 28.1723C18.7779 25.9051 16.1135 26.1437 14.1974 26.7338C13.5822 24.7267 13.049 22.7958 12.8323 21.8884C11.7122 17.2011 6.41002 15.2472 2.81113 18.6277C3.78782 9.11989 11.874 1.24117 22.261 1.24117C27.436 1.24117 32.401 3.325 36.0297 6.92276C34.8769 8.3532 34.8925 10.2257 34.8971 11.4363C34.9116 15.0675 38.0887 15.3208 39.0701 13.6863C40.2311 11.7521 39.6198 12.3508 41.6192 10.4516C42.1128 9.9833 42.3243 9.29258 42.301 8.56685C48.6935 7.99411 54.391 11.6629 56.7766 17.0951C57.2232 18.6041 56.1057 19.4677 56.2263 21.1818C56.3123 22.4139 57.1986 22.8762 58.4969 23.4036C58.7012 23.5164 58.9441 23.6227 59.2377 23.7246C60.9956 24.3329 62.0127 26.5665 61.5777 28.3182ZM16.5718 38.5466C13.8636 39.92 11.6342 39.9072 10.6982 38.6204C9.42838 36.8755 10.9102 33.5889 14.1604 31.7739C16.8216 30.288 18.6487 30.6222 19.5119 31.5455C21.2724 33.4279 19.8734 36.8719 16.5718 38.5466ZM62.1108 24.581C61.0085 22.8503 59.6308 22.5801 59.2002 22.373C59.0533 16.8835 56.0479 12.1649 51.6834 9.52229C52.1326 7.36509 50.7787 4.3686 47.2482 4.63695C45.0866 4.80108 43.8567 5.9891 43.0788 7.27408C42.7345 7.28549 42.3893 7.30986 42.0447 7.34409C41.2448 5.30615 39.125 4.55191 36.9385 6.07906C33.0766 2.23058 27.7812 0 22.261 0C16.0513 0 10.1798 2.68199 6.13037 7.61789C5.18294 6.74982 3.72852 6.06973 1.90358 7.26786C-1.19117 9.29932 -0.132403 13.7561 2.37353 14.586C1.79793 16.4531 1.49162 18.4037 1.47168 20.3926C0.825648 21.5972 0.351542 23.239 0.252371 25.497C0.0258064 30.6624 1.70394 40.369 11.3626 40.7255C13.4711 40.8036 15.3248 40.5145 16.8579 39.8717C19.52 39.8733 29.6703 39.8787 33.2925 39.8774C34.7889 40.4115 36.4704 40.7053 38.3528 40.7053C44.3556 40.7053 48.527 41.1575 49.7603 37.9111C51.8305 37.5584 54.7543 36.7599 57.4402 34.9573C61.2664 34.815 63.9829 34.5651 65.2661 32.7213C66.8425 30.457 65.9189 26.0278 62.1108 24.581Z" fill="#231F20"/>
<path d="M12.6598 54.1603C12.6598 53.048 12.4462 52.1924 12.019 51.593C11.5918 50.9945 10.9789 50.6948 10.1819 50.6948C9.41285 50.6948 8.81472 50.9945 8.38748 51.593C7.98821 52.1354 7.78935 52.991 7.78935 54.1603C7.78935 55.2444 8.00271 56.0572 8.42995 56.5986C8.85718 57.1973 9.46956 57.4973 10.2671 57.4973C11.0073 57.4973 11.5918 57.1973 12.019 56.5986C12.4462 55.9994 12.6598 55.1868 12.6598 54.1603ZM7.78935 62.5452C7.78935 62.9442 7.64642 63.2867 7.36186 63.5722C7.07703 63.8571 6.73524 64 6.33674 64H4.88388V53.3475C4.88388 51.3513 5.46725 49.9891 6.63555 49.2615C7.80333 48.5342 9.0708 48.1707 10.4382 48.1707C11.1498 48.1707 11.8693 48.3063 12.5959 48.577C13.3219 48.8482 13.8988 49.2403 14.3261 49.7536C15.1805 50.8659 15.6078 52.2922 15.6078 54.0315C15.6078 55.8286 15.1805 57.2829 14.3261 58.3954C13.4713 59.4797 12.3748 60.0211 11.0363 60.0211C10.324 60.0211 9.69716 59.893 9.15625 59.6361C8.58634 59.3514 8.13088 58.9088 7.78935 58.3099V62.5452Z" fill="#231F20"/>
<path d="M23.6261 54.0743C23.2268 54.2744 22.6714 54.4596 21.9599 54.6309L20.9772 54.8443C20.4645 54.9877 20.094 55.1731 19.8664 55.401C19.6668 55.715 19.5673 56.0287 19.5673 56.3424C19.5673 56.77 19.6955 57.1122 19.9519 57.3687C20.2079 57.5974 20.5779 57.7109 21.0627 57.7109C21.8597 57.7109 22.4865 57.4833 22.9425 57.0264C23.3977 56.5704 23.6261 55.9432 23.6261 55.1443V54.0743ZM24.3097 59.3366C23.7115 59.6509 23.0774 59.843 22.4083 59.9143C21.7387 59.9851 21.1481 60.0211 20.6352 60.0211C19.6098 60.0211 18.7129 59.7432 17.9438 59.187C17.1746 58.6308 16.79 57.7109 16.79 56.4275C16.79 55.2296 17.1386 54.374 17.8369 53.8606C18.5345 53.3475 19.4244 53.005 20.5073 52.8339C20.6494 52.8339 20.8203 52.8124 21.0197 52.7693C21.2188 52.7271 21.4472 52.6915 21.7035 52.663C22.9565 52.4916 23.5834 52.1211 23.5834 51.5502C23.5834 51.1224 23.3622 50.8444 22.9213 50.7161C22.479 50.588 22.0733 50.5237 21.7035 50.5237C21.3042 50.5237 20.9485 50.5813 20.6352 50.6948C20.3216 50.8092 20.094 51.0231 19.9519 51.3365H17.0894C17.2028 50.4527 17.6018 49.7254 18.2854 49.1547C19.0544 48.499 20.1507 48.1707 21.5754 48.1707C23.1698 48.1707 24.3664 48.4419 25.1641 48.9836C25.9899 49.5545 26.4031 50.3526 26.4031 51.3793V55.2724C26.4031 56.4137 26.1962 57.3046 25.7838 57.9464C25.3702 58.5881 24.8791 59.0519 24.3097 59.3366Z" fill="#231F20"/>
<path d="M37.9455 59.8072H36.4505C36.023 59.8072 35.6737 59.6724 35.4036 59.4006C35.1328 59.1302 34.9973 58.781 34.9973 58.3526V52.5344C34.9973 51.8499 34.7907 51.3513 34.3782 51.0373C33.965 50.7236 33.5023 50.5665 32.9896 50.5665C32.4769 50.5665 32.0209 50.7236 31.6224 51.0373C31.2232 51.3513 31.024 51.8499 31.024 52.5344V59.8072H28.0336V53.1336C28.0336 51.1939 28.5388 49.8965 29.5502 49.2403C30.5608 48.5845 31.6791 48.2283 32.9041 48.1707C34.1571 48.1707 35.3106 48.499 36.3648 49.1547C37.4183 49.8109 37.9455 51.1371 37.9455 53.1336V59.8072Z" fill="#231F20"/>
<path d="M42.2673 54.0315C42.2673 55.1731 42.4815 56.0422 42.9085 56.6414C43.3357 57.2401 43.9478 57.5403 44.7456 57.5403C45.5143 57.5403 46.113 57.2401 46.54 56.6414C46.9385 56.0422 47.1381 55.1731 47.1381 54.0315C47.1381 53.005 46.9248 52.1924 46.4973 51.593C46.0413 51.0231 45.4291 50.7373 44.6604 50.7373C43.9191 50.7373 43.3357 51.0373 42.9085 51.636C42.4815 52.2067 42.2673 53.005 42.2673 54.0315ZM47.1381 45.0477H48.591C48.9892 45.0477 49.3312 45.1973 49.6161 45.4965C49.9006 45.7965 50.0433 46.1318 50.0433 46.502V54.8443C50.0433 56.8703 49.4592 58.2391 48.2919 58.9516C47.1233 59.6651 45.8566 60.0211 44.4892 60.0211C43.7482 60.0211 43.0216 59.8995 42.3101 59.6576C41.5977 59.4157 41.0286 59.0231 40.6016 58.481C39.7746 57.4262 39.3624 55.9859 39.3624 54.1604C39.3624 52.363 39.7746 50.9233 40.6016 49.8395C41.4558 48.7266 42.5519 48.1707 43.8908 48.1707C44.6026 48.1707 45.2295 48.3139 45.7712 48.5985C46.3403 48.9408 46.7963 49.3834 47.1381 49.9248V45.0477Z" fill="#231F20"/>
<path d="M58.3389 54.0743C57.9394 54.2744 57.384 54.4596 56.6725 54.6309L55.6898 54.8443C55.1774 54.9877 54.8066 55.1731 54.579 55.401C54.3791 55.715 54.2799 56.0287 54.2799 56.3424C54.2799 56.77 54.4081 57.1122 54.6645 57.3687C54.9208 57.5974 55.2905 57.7109 55.7753 57.7109C56.5723 57.7109 57.1989 57.4833 57.6551 57.0264C58.1103 56.5704 58.3389 55.9432 58.3389 55.1443V54.0743ZM59.0223 59.3366C58.4241 59.6509 57.79 59.843 57.1212 59.9143C56.4513 59.9851 55.8607 60.0211 55.348 60.0211C54.3227 60.0211 53.4255 59.7432 52.6564 59.187C51.8874 58.6308 51.5029 57.7109 51.5029 56.4275C51.5029 55.2296 51.8512 54.374 52.5495 53.8606C53.2473 53.3475 54.137 53.005 55.2199 52.8339C55.3623 52.8339 55.5327 52.8124 55.7325 52.7693C55.9314 52.7271 56.1598 52.6915 56.4161 52.663C57.6691 52.4916 58.2962 52.1211 58.2962 51.5502C58.2962 51.1224 58.0748 50.8444 57.6336 50.7161C57.1916 50.588 56.7859 50.5237 56.4161 50.5237C56.0168 50.5237 55.6611 50.5813 55.348 50.6948C55.0345 50.8092 54.8066 51.0231 54.6645 51.3365H51.802C51.9151 50.4527 52.3147 49.7254 52.9982 49.1547C53.767 48.499 54.8633 48.1707 56.2882 48.1707C57.883 48.1707 59.0792 48.4419 59.8767 48.9836C60.703 49.5545 61.1157 50.3526 61.1157 51.3793V55.2724C61.1157 56.4137 60.9086 57.3046 60.4964 57.9464C60.0829 58.5881 59.5917 59.0519 59.0223 59.3366Z" fill="#231F20"/>
</svg>
